<svg height="512pt" viewBox="0 -18 512.00066 512" width="512pt" xmlns="http://www.w3.org/2000/svg"><path d="m194.207031 317.792969h-105.929687v17.65625c0 29.253906 23.710937 52.964843 52.964844 52.964843v88.277344h194.207031v-158.898437zm0 0" fill="#f8c09c"/><path d="m35.929688 35.308594h440.140624c19.84375 0 35.929688 16.085937 35.929688 35.929687v228.28125c0 19.84375-16.085938 35.929688-35.929688 35.929688h-440.140624c-19.84375 0-35.929688-16.085938-35.929688-35.929688v-228.28125c0-19.84375 16.085938-35.929687 35.929688-35.929687zm0 0" fill="#dd1c4b"/><g fill="#f8c09c"><path d="m326.621094 0h70.621094v52.964844c0 19.503906-15.808594 35.3125-35.3125 35.3125-19.5 0-35.308594-15.808594-35.308594-35.3125zm0 0"/><path d="m256 0h70.621094v52.964844c0 19.503906-15.808594 35.3125-35.308594 35.3125-19.503906 0-35.3125-15.808594-35.3125-35.3125zm0 0"/><path d="m185.378906 0h70.621094v52.964844c0 19.503906-15.808594 35.3125-35.308594 35.3125-19.503906 0-35.3125-15.808594-35.3125-35.3125zm0 0"/><path d="m114.757812 0h70.621094v52.964844c0 19.503906-15.808594 35.3125-35.308594 35.3125-19.503906 0-35.3125-15.808594-35.3125-35.3125zm0 0"/><path d="m441.378906 335.449219h-72.660156c-9.875-42.753907-52.539062-69.402344-95.292969-59.527344-35.953125 8.308594-61.457031 40.277344-61.5625 77.183594v35.308593h229.515625c14.628906 0 26.484375-11.855468 26.484375-26.484374 0-14.625-11.859375-26.480469-26.484375-26.480469zm0 0"/></g></svg>