<svg height="682pt" viewBox="-21 -91 682.66669 682" width="682pt" xmlns="http://www.w3.org/2000/svg"><path d="m639.984375 7.53125c-.335937-6.617188-5.796875-11.863281-12.484375-11.863281h-615c-6.6875 0-12.148438 5.246093-12.484375 11.863281-.015625.214844-.015625.425781-.015625.640625v474.988281c0 6.90625 5.601562 12.507813 12.5 12.507813h615c6.898438 0 12.5-5.601563 12.5-12.507813v-474.988281c0-.214844 0-.425781-.015625-.640625zm-614.984375 12.992188h590v57.667968h-590zm590 450.132812h-590v-367.457031h590zm0 0"/><path d="m213.75 62.722656h-100c-6.90625 0-12.5-5.597656-12.5-12.5 0-6.910156 5.59375-12.503906 12.5-12.503906h100c6.90625 0 12.5 5.59375 12.5 12.503906 0 6.902344-5.59375 12.5-12.5 12.5zm0 0"/><path d="m63.773438 62.722656c-6.902344 0-12.503907-5.597656-12.503907-12.5 0-6.910156 5.589844-12.503906 12.496094-12.503906h.007813c6.90625 0 12.5 5.59375 12.5 12.503906 0 6.902344-5.59375 12.5-12.5 12.5zm0 0"/><path d="m567.5 436.480469h-495c-6.90625 0-12.5-5.59375-12.5-12.503907v-275.082031c0-6.90625 5.59375-12.503906 12.5-12.503906h495c6.90625 0 12.5 5.597656 12.5 12.503906v275.082031c0 6.910157-5.59375 12.503907-12.5 12.503907zm-482.5-25.007813h470v-250.074218h-470zm0 0"/><path d="m245.800781 297.179688c0 6.90625-5.601562 12.503906-12.5 12.503906h-21.160156v36.972656c0 6.90625-5.601563 12.507812-12.5 12.507812-6.902344 0-12.5-5.601562-12.5-12.507812v-36.972656h-57.765625c-4.046875 0-7.859375-1.972656-10.199219-5.277344-2.347656-3.308594-2.941406-7.546875-1.589843-11.375l25.804687-73.273438c2.28125-6.503906 9.421875-9.925781 15.9375-7.640624 6.511719 2.304687 9.921875 9.441406 7.632813 15.957031l-19.933594 56.605469h40.113281v-44.042969c0-6.898438 5.597656-12.5 12.5-12.5 6.898437 0 12.5 5.601562 12.5 12.5v44.042969h21.160156c6.898438 0 12.5 5.585937 12.5 12.5zm0 0"/><path d="m320.960938 359.15625c-35.546876 0-64.46875-33.136719-64.46875-73.871094 0-40.730468 28.921874-73.871094 64.46875-73.871094 35.542968 0 64.464843 33.140626 64.464843 73.871094 0 40.734375-28.921875 73.871094-64.464843 73.871094zm0-122.734375c-21.761719 0-39.46875 21.921875-39.46875 48.863281 0 26.945313 17.707031 48.863282 39.46875 48.863282 21.757812 0 39.464843-21.917969 39.464843-48.863282 0-26.941406-17.707031-48.863281-39.464843-48.863281zm0 0"/><path d="m525.625 299.484375c0 6.898437-5.601562 12.5-12.5 12.5h-21.164062v36.976563c0 6.902343-5.597657 12.5-12.5 12.5-6.914063 0-12.5-5.597657-12.5-12.5v-36.976563h-57.761719c-4.0625 0-7.863281-1.972656-10.199219-5.273437-2.351562-3.316407-2.9375-7.554688-1.585938-11.382813l25.785157-73.253906c2.300781-6.519531 9.4375-9.941407 15.949219-7.644531 6.515624 2.292968 9.929687 9.429687 7.640624 15.945312l-19.9375 56.605469h40.109376v-44.039063c0-6.902344 5.585937-12.503906 12.5-12.503906 6.902343 0 12.5 5.601562 12.5 12.503906v44.039063h21.164062c6.898438 0 12.5 5.585937 12.5 12.503906zm0 0"/></svg>